{
    "asset": {
        "version": "2.0",
        "generator": "Open Asset Import Library (assimp v5.2.cf7d3637)"
    },
    "extensionsUsed": [
        "KHR_materials_volume",
        "FB_ngon_encoding"
    ],
    "accessors": [
        {
            "bufferView": 0,
            "byteOffset": 0,
            "componentType": 5126,
            "count": 2838,
            "type": "VEC3",
            "max": [
                1.0,
                0.9945589900016785,
                1.0
            ],
            "min": [
                -1.0,
                -0.9023913145065308,
                -1.0
            ]
        },
        {
            "bufferView": 1,
            "byteOffset": 0,
            "componentType": 5126,
            "count": 2838,
            "type": "VEC3",
            "max": [
                0.9991468191146851,
                1.0,
                0.9991551041603088
            ],
            "min": [
                -0.9991468191146851,
                0.0,
                -0.9991551041603088
            ]
        },
        {
            "bufferView": 2,
            "byteOffset": 0,
            "componentType": 5126,
            "count": 2838,
            "type": "VEC2",
            "max": [
                0.999691903591156,
                1.0004676580429078
            ],
            "min": [
                -0.0009929115185514093,
                0.0
            ]
        },
        {
            "bufferView": 3,
            "byteOffset": 0,
            "componentType": 5125,
            "count": 2838,
            "type": "SCALAR",
            "max": [
                2837
            ],
            "min": [
                0
            ]
        },
        {
            "bufferView": 4,
            "byteOffset": 0,
            "componentType": 5126,
            "count": 9972,
            "type": "VEC3",
            "max": [
                0.8824364542961121,
                1.152004599571228,
                0.8823865652084351
            ],
            "min": [
                -0.8824933171272278,
                -0.8527613878250122,
                -0.88254314661026
            ]
        },
        {
            "bufferView": 5,
            "byteOffset": 0,
            "componentType": 5126,
            "count": 9972,
            "type": "VEC3",
            "max": [
                1.0,
                1.0,
                1.0
            ],
            "min": [
                -1.0,
                -1.0,
                -1.0
            ]
        },
        {
            "bufferView": 6,
            "byteOffset": 0,
            "componentType": 5126,
            "count": 9972,
            "type": "VEC2",
            "max": [
                1.0,
                0.9900000095367432
            ],
            "min": [
                0.0,
                0.0
            ]
        },
        {
            "bufferView": 7,
            "byteOffset": 0,
            "componentType": 5125,
            "count": 9972,
            "type": "SCALAR",
            "max": [
                9971
            ],
            "min": [
                0
            ]
        },
        {
            "bufferView": 8,
            "byteOffset": 0,
            "componentType": 5126,
            "count": 420,
            "type": "VEC3",
            "max": [
                1.0205833911895753,
                0.1624256670475006,
                1.4535678625106812
            ],
            "min": [
                -0.9901459813117981,
                3.709109686056422e-9,
                -0.019905060529708864
            ]
        },
        {
            "bufferView": 9,
            "byteOffset": 0,
            "componentType": 5126,
            "count": 420,
            "type": "VEC3",
            "max": [
                0.9845558404922485,
                1.0,
                0.8682723641395569
            ],
            "min": [
                -0.998619794845581,
                -1.0,
                -0.8829888701438904
            ]
        },
        {
            "bufferView": 10,
            "byteOffset": 0,
            "componentType": 5126,
            "count": 420,
            "type": "VEC2",
            "max": [
                1.0,
                1.0
            ],
            "min": [
                0.0,
                0.0
            ]
        },
        {
            "bufferView": 11,
            "byteOffset": 0,
            "componentType": 5125,
            "count": 420,
            "type": "SCALAR",
            "max": [
                419
            ],
            "min": [
                0
            ]
        },
        {
            "bufferView": 12,
            "byteOffset": 0,
            "componentType": 5126,
            "count": 420,
            "type": "VEC3",
            "max": [
                1.0205833911895753,
                0.1624256670475006,
                1.4535678625106812
            ],
            "min": [
                -0.9901459813117981,
                3.709109686056422e-9,
                -0.019905060529708864
            ]
        },
        {
            "bufferView": 13,
            "byteOffset": 0,
            "componentType": 5126,
            "count": 420,
            "type": "VEC3",
            "max": [
                0.9845558404922485,
                1.0,
                0.8682723641395569
            ],
            "min": [
                -0.998619794845581,
                -1.0,
                -0.8829888701438904
            ]
        },
        {
            "bufferView": 14,
            "byteOffset": 0,
            "componentType": 5126,
            "count": 420,
            "type": "VEC2",
            "max": [
                1.0,
                1.0
            ],
            "min": [
                0.0,
                0.0
            ]
        },
        {
            "bufferView": 15,
            "byteOffset": 0,
            "componentType": 5125,
            "count": 420,
            "type": "SCALAR",
            "max": [
                419
            ],
            "min": [
                0
            ]
        }
    ],
    "buffers": [
        {
            "byteLength": 491400,
            "uri": "result.bin"
        }
    ],
    "bufferViews": [
        {
            "buffer": 0,
            "byteOffset": 0,
            "byteLength": 34056,
            "target": 34962
        },
        {
            "buffer": 0,
            "byteOffset": 34056,
            "byteLength": 34056,
            "target": 34962
        },
        {
            "buffer": 0,
            "byteOffset": 68112,
            "byteLength": 22704,
            "target": 34962
        },
        {
            "buffer": 0,
            "byteOffset": 90816,
            "byteLength": 11352,
            "target": 34963
        },
        {
            "buffer": 0,
            "byteOffset": 102168,
            "byteLength": 119664,
            "target": 34962
        },
        {
            "buffer": 0,
            "byteOffset": 221832,
            "byteLength": 119664,
            "target": 34962
        },
        {
            "buffer": 0,
            "byteOffset": 341496,
            "byteLength": 79776,
            "target": 34962
        },
        {
            "buffer": 0,
            "byteOffset": 421272,
            "byteLength": 39888,
            "target": 34963
        },
        {
            "buffer": 0,
            "byteOffset": 461160,
            "byteLength": 5040,
            "target": 34962
        },
        {
            "buffer": 0,
            "byteOffset": 466200,
            "byteLength": 5040,
            "target": 34962
        },
        {
            "buffer": 0,
            "byteOffset": 471240,
            "byteLength": 3360,
            "target": 34962
        },
        {
            "buffer": 0,
            "byteOffset": 474600,
            "byteLength": 1680,
            "target": 34963
        },
        {
            "buffer": 0,
            "byteOffset": 476280,
            "byteLength": 5040,
            "target": 34962
        },
        {
            "buffer": 0,
            "byteOffset": 481320,
            "byteLength": 5040,
            "target": 34962
        },
        {
            "buffer": 0,
            "byteOffset": 486360,
            "byteLength": 3360,
            "target": 34962
        },
        {
            "buffer": 0,
            "byteOffset": 489720,
            "byteLength": 1680,
            "target": 34963
        }
    ],
    "images": [
        {
            "name": "간단요리사-담백한-채소육수-엣지-240620",
            "uri": "data:image/jpeg;base64,"
        }
    ],
    "materials": [
        {
            "name": "Material",
            "pbrMetallicRoughness": {
                "baseColorTexture": {
                    "index": 0
                },
                "metallicFactor": 0.0,
                "roughnessFactor": 0.5
            },
            "doubleSided": true
        },
        {
            "name": "매테리얼",
            "pbrMetallicRoughness": {
                "baseColorFactor": [
                    0.800000011920929,
                    0.800000011920929,
                    0.800000011920929,
                    1.0
                ],
                "metallicFactor": 0.0,
                "roughnessFactor": 0.5
            },
            "doubleSided": true
        },
        {
            "name": "매테리얼.001",
            "pbrMetallicRoughness": {
                "baseColorFactor": [
                    0.5390625,
                    0.2186279296875,
                    0.035247802734375,
                    1.0
                ],
                "metallicFactor": 0.0,
                "roughnessFactor": 0.5
            },
            "doubleSided": true
        },
        {
            "name": "material"
        }
    ],
    "meshes": [
        {
            "name": "큐브.002",
            "primitives": [
                {
                    "mode": 4,
                    "material": 0,
                    "indices": 3,
                    "attributes": {
                        "POSITION": 0,
                        "NORMAL": 1,
                        "TEXCOORD_0": 2
                    }
                }
            ]
        },
        {
            "name": "실린더.003",
            "primitives": [
                {
                    "mode": 4,
                    "material": 1,
                    "indices": 7,
                    "attributes": {
                        "POSITION": 4,
                        "NORMAL": 5,
                        "TEXCOORD_0": 6
                    }
                }
            ]
        },
        {
            "name": "평면",
            "primitives": [
                {
                    "mode": 4,
                    "material": 2,
                    "indices": 11,
                    "attributes": {
                        "POSITION": 8,
                        "NORMAL": 9,
                        "TEXCOORD_0": 10
                    }
                }
            ]
        },
        {
            "name": "평면.001",
            "primitives": [
                {
                    "mode": 4,
                    "material": 2,
                    "indices": 15,
                    "attributes": {
                        "POSITION": 12,
                        "NORMAL": 13,
                        "TEXCOORD_0": 14
                    }
                }
            ]
        }
    ],
    "nodes": [
        {
            "name": "ROOT",
            "children": [
                1,
                2,
                3,
                4
            ]
        },
        {
            "name": "큐브.001",
            "matrix": [
                0.835898220539093,
                0.0,
                0.0,
                0.0,
                0.0,
                2.0,
                0.0,
                0.0,
                0.0,
                0.0,
                0.835898220539093,
                0.0,
                -0.021515341475605966,
                1.8649506568908692,
                -0.00670749694108963,
                1.0
            ],
            "mesh": 0
        },
        {
            "name": "실린더.003",
            "matrix": [
                0.39300477504730227,
                0.05165299028158188,
                0.0,
                0.0,
                -0.013853635638952256,
                0.10540619492530823,
                0.0,
                0.0,
                0.0,
                0.0,
                0.39638468623161318,
                0.0,
                -0.053786665201187137,
                3.814290761947632,
                0.001965954899787903,
                1.0
            ],
            "mesh": 1
        },
        {
            "name": "평면",
            "matrix": [
                -0.7370737791061401,
                0.0,
                0.0,
                0.0,
                0.0,
                6.40241779592543e-8,
                -0.5370737910270691,
                0.0,
                0.0,
                0.5370750427246094,
                6.402432717322881e-8,
                0.0,
                -0.023020833730697633,
                3.0633673667907717,
                0.8414196968078613,
                1.0
            ],
            "mesh": 2
        },
        {
            "name": "평면.001",
            "matrix": [
                -0.7370739579200745,
                0.0,
                0.0,
                0.0,
                0.0,
                -6.40241779592543e-8,
                0.5370737910270691,
                0.0,
                0.0,
                0.5370750427246094,
                -6.402432717322881e-8,
                0.0,
                -0.023020833730697633,
                3.0633673667907717,
                -0.8525566458702087,
                1.0
            ],
            "mesh": 3
        }
    ],
    "samplers": [
        {
            "magFilter": 9729,
            "minFilter": 9987
        }
    ],
    "scenes": [
        {
            "nodes": [
                0
            ]
        }
    ],
    "textures": [
        {
            "source": 0,
            "sampler": 0
        }
    ],
    "scene": 0
}