{
	"asset":{
		"generator":"Khronos glTF Blender I/O v4.3.47",
		"version":"2.0"
	},
	"extensionsUsed":[
		"KHR_lights_punctual"
	],
	"extensionsRequired":[
		"KHR_lights_punctual"
	],
	"extensions":{
		"KHR_lights_punctual":{
			"lights":[
				{
					"color":[
						1,
						0.9146403074264526,
						0.624066948890686
					],
					"intensity":6830,
					"type":"directional",
					"name":"\uc601\uc5ed.001"
				}
			]
		}
	},
	"scene":0,
	"scenes":[
		{
			"name":"Scene",
			"nodes":[
				0,
				1,
				2,
				3,
				4,
				5
			]
		}
	],
	"nodes":[
		{
			"mesh":0,
			"name":"\uc6d0\ud615.001",
			"scale":[
				0.29885154962539673,
				0.29885154962539673,
				0.29885154962539673
			],
			"translation":[
				-0.022378921508789062,
				3.1798343658447266,
				-0.07877977937459946
			]
		},
		{
			"name":"\uc6d0\ud615",
			"scale":[
				0.22678405046463013,
				0.22678405046463013,
				0.22678405046463013
			],
			"translation":[
				-0.022378921508789062,
				3.109834671020508,
				-0.07877977937459946
			]
		},
		{
			"name":"\uc601\uc5ed",
			"rotation":[
				-0.14359360933303833,
				-0.6306647658348083,
				-0.6550522446632385,
				0.39057570695877075
			],
			"translation":[
				-6.2269511222839355,
				21.688133239746094,
				3.4323461055755615
			]
		},
		{
			"mesh":1,
			"name":"\uc2e4\ub9b0\ub354.001",
			"scale":[
				0.06573426723480225,
				0.06573426723480225,
				0.06573426723480225
			],
			"translation":[
				-0.022378921508789062,
				3.182412624359131,
				-0.17597751319408417
			]
		},
		{
			"mesh":2,
			"name":"\uc2e4\ub9b0\ub354",
			"scale":[
				1,
				1.559999942779541,
				1
			],
			"translation":[
				-0.022378921508789062,
				1.6450061798095703,
				0
			]
		},
		{
			"extensions":{
				"KHR_lights_punctual":{
					"light":0
				}
			},
			"name":"\uc601\uc5ed.001",
			"rotation":[
				-0.7141375541687012,
				0.28001096844673157,
				-0.15426483750343323,
				0.6227389574050903
			],
			"translation":[
				14.272749900817871,
				20.56987762451172,
				-4.932446479797363
			]
		}
	],
	"materials":[
		{
			"doubleSided":true,
			"name":"\ub9e4\ud14c\ub9ac\uc5bc",
			"pbrMetallicRoughness":{
				"roughnessFactor":0.5
			}
		}
	],
	"meshes":[
		{
			"name":"\uc6d0\ud615.001",
			"primitives":[
				{
					"attributes":{
						"POSITION":0,
						"NORMAL":1,
						"TEXCOORD_0":2
					},
					"indices":3,
					"material":0
				}
			]
		},
		{
			"name":"\uc2e4\ub9b0\ub354.001",
			"primitives":[
				{
					"attributes":{
						"POSITION":4,
						"NORMAL":5,
						"TEXCOORD_0":6
					},
					"indices":7,
					"material":0
				}
			]
		},
		{
			"name":"\uc2e4\ub9b0\ub354",
			"primitives":[
				{
					"attributes":{
						"POSITION":8,
						"NORMAL":9,
						"TEXCOORD_0":10
					},
					"indices":11,
					"material":0
				}
			]
		}
	],
	"accessors":[
		{
			"bufferView":0,
			"componentType":5126,
			"count":364,
			"max":[
				0.9807852506637573,
				0.17049717903137207,
				2.0888941287994385
			],
			"min":[
				-0.9807852506637573,
				0,
				-0.9273831844329834
			],
			"type":"VEC3"
		},
		{
			"bufferView":1,
			"componentType":5126,
			"count":364,
			"type":"VEC3"
		},
		{
			"bufferView":2,
			"componentType":5126,
			"count":364,
			"type":"VEC2"
		},
		{
			"bufferView":3,
			"componentType":5123,
			"count":2184,
			"type":"SCALAR"
		},
		{
			"bufferView":4,
			"componentType":5126,
			"count":130,
			"max":[
				1,
				1,
				1
			],
			"min":[
				-1,
				-1,
				-1
			],
			"type":"VEC3"
		},
		{
			"bufferView":5,
			"componentType":5126,
			"count":130,
			"type":"VEC3"
		},
		{
			"bufferView":6,
			"componentType":5126,
			"count":130,
			"type":"VEC2"
		},
		{
			"bufferView":7,
			"componentType":5123,
			"count":372,
			"type":"SCALAR"
		},
		{
			"bufferView":8,
			"componentType":5126,
			"count":1636,
			"max":[
				1.0279104709625244,
				1,
				1.0279104709625244
			],
			"min":[
				-1.0279104709625244,
				-1.025188684463501,
				-1.0279104709625244
			],
			"type":"VEC3"
		},
		{
			"bufferView":9,
			"componentType":5126,
			"count":1636,
			"type":"VEC3"
		},
		{
			"bufferView":10,
			"componentType":5126,
			"count":1636,
			"type":"VEC2"
		},
		{
			"bufferView":11,
			"componentType":5123,
			"count":8676,
			"type":"SCALAR"
		}
	],
	"bufferViews":[
		{
			"buffer":0,
			"byteLength":4368,
			"byteOffset":0,
			"target":34962
		},
		{
			"buffer":0,
			"byteLength":4368,
			"byteOffset":4368,
			"target":34962
		},
		{
			"buffer":0,
			"byteLength":2912,
			"byteOffset":8736,
			"target":34962
		},
		{
			"buffer":0,
			"byteLength":4368,
			"byteOffset":11648,
			"target":34963
		},
		{
			"buffer":0,
			"byteLength":1560,
			"byteOffset":16016,
			"target":34962
		},
		{
			"buffer":0,
			"byteLength":1560,
			"byteOffset":17576,
			"target":34962
		},
		{
			"buffer":0,
			"byteLength":1040,
			"byteOffset":19136,
			"target":34962
		},
		{
			"buffer":0,
			"byteLength":744,
			"byteOffset":20176,
			"target":34963
		},
		{
			"buffer":0,
			"byteLength":19632,
			"byteOffset":20920,
			"target":34962
		},
		{
			"buffer":0,
			"byteLength":19632,
			"byteOffset":40552,
			"target":34962
		},
		{
			"buffer":0,
			"byteLength":13088,
			"byteOffset":60184,
			"target":34962
		},
		{
			"buffer":0,
			"byteLength":17352,
			"byteOffset":73272,
			"target":34963
		}
	],
	"buffers":[
		{
			"byteLength":90624,
			"uri":"can.bin"
		}
	]
}
